<?xml version="1.0" encoding="utf-8"?>
<!-- Generator: Adobe Illustrator 24.0.0, SVG Export Plug-In . SVG Version: 6.00 Build 0)  -->
<svg version="1.1" id="Capa_1" xmlns="http://www.w3.org/2000/svg" xmlns:xlink="http://www.w3.org/1999/xlink" x="0px" y="0px"
	 viewBox="0 0 231.9 234.2" style="enable-background:new 0 0 231.9 234.2;" xml:space="preserve">
<style type="text/css">
	.st0{clip-path:url(#SVGID_2_);}
	.st1{clip-path:url(#SVGID_4_);fill:url(#SVGID_5_);}
	.st2{clip-path:url(#SVGID_7_);fill:url(#SVGID_8_);}
	.st3{clip-path:url(#SVGID_10_);fill:url(#SVGID_11_);}
	.st4{clip-path:url(#SVGID_13_);fill:url(#SVGID_14_);}
	.st5{clip-path:url(#SVGID_16_);fill:#BAE6FE;}
	.st6{clip-path:url(#SVGID_18_);fill:url(#SVGID_19_);}
	.st7{clip-path:url(#SVGID_21_);fill:#201B35;}
	.st8{clip-path:url(#SVGID_23_);fill:url(#SVGID_24_);}
	.st9{clip-path:url(#SVGID_26_);fill:url(#SVGID_27_);}
	.st10{clip-path:url(#SVGID_29_);fill:url(#SVGID_30_);}
	.st11{clip-path:url(#SVGID_32_);fill:url(#SVGID_33_);}
	.st12{clip-path:url(#SVGID_35_);fill:#4F478B;}
	.st13{clip-path:url(#SVGID_37_);fill:url(#SVGID_38_);}
	.st14{clip-path:url(#SVGID_40_);fill:url(#SVGID_41_);}
	.st15{clip-path:url(#SVGID_43_);fill:url(#SVGID_44_);}
	.st16{clip-path:url(#SVGID_46_);fill:url(#SVGID_47_);}
	.st17{clip-path:url(#SVGID_49_);fill:url(#SVGID_50_);}
	.st18{clip-path:url(#SVGID_52_);fill:url(#SVGID_53_);}
	.st19{clip-path:url(#SVGID_55_);fill:url(#SVGID_56_);}
	.st20{clip-path:url(#SVGID_58_);fill:url(#SVGID_59_);}
	.st21{clip-path:url(#SVGID_61_);fill:url(#SVGID_62_);}
	.st22{clip-path:url(#SVGID_64_);fill:url(#SVGID_65_);}
	.st23{clip-path:url(#SVGID_67_);fill:url(#SVGID_68_);}
	.st24{clip-path:url(#SVGID_70_);fill:url(#SVGID_71_);}
	.st25{clip-path:url(#SVGID_73_);fill:url(#SVGID_74_);}
	.st26{clip-path:url(#SVGID_76_);fill:url(#SVGID_77_);}
	.st27{clip-path:url(#SVGID_79_);fill:url(#SVGID_80_);}
	.st28{clip-path:url(#SVGID_82_);fill:url(#SVGID_83_);}
</style>
<g id="Icono_Noturna">
	<g>
		<g>
			<defs>
				<circle id="SVGID_1_" cx="115.9" cy="117.1" r="115.2"/>
			</defs>
			<clipPath id="SVGID_2_">
				<use xlink:href="#SVGID_1_"  style="overflow:visible;"/>
			</clipPath>
			<g class="st0">
				<g>
					<defs>
						<path id="SVGID_3_" d="M134.3,232.3H97.6C43.7,232.3,0,188.6,0,134.7V94.8C0,40.9,43.7-2.8,97.6-2.8h36.7
							c53.9,0,97.6,43.7,97.6,97.6v40C231.9,188.6,188.2,232.3,134.3,232.3z"/>
					</defs>
					<clipPath id="SVGID_4_">
						<use xlink:href="#SVGID_3_"  style="overflow:visible;"/>
					</clipPath>
					
						<linearGradient id="SVGID_5_" gradientUnits="userSpaceOnUse" x1="117.2733" y1="85.8732" x2="115.5711" y2="241.7881" gradientTransform="matrix(1 0 0 -1 0 233.8898)">
						<stop  offset="8.130000e-02" style="stop-color:#5F5DB0"/>
						<stop  offset="0.3603" style="stop-color:#544C96"/>
						<stop  offset="0.8234" style="stop-color:#3D2A62"/>
					</linearGradient>
					<path class="st1" d="M135.3,232.3H98.6C44.7,232.3,1,188.6,1,134.7V94.8C1,40.9,44.7-2.8,98.6-2.8h36.7
						c53.9,0,97.6,43.7,97.6,97.6v40C232.9,188.6,189.2,232.3,135.3,232.3z"/>
				</g>
				<g>
					<defs>
						<path id="SVGID_6_" d="M134.3,232.3H97.6C43.7,232.3,0,188.6,0,134.7V94.8C0,40.9,43.7-2.8,97.6-2.8h36.7
							c53.9,0,97.6,43.7,97.6,97.6v40C231.9,188.6,188.2,232.3,134.3,232.3z"/>
					</defs>
					<clipPath id="SVGID_7_">
						<use xlink:href="#SVGID_6_"  style="overflow:visible;"/>
					</clipPath>
					
						<linearGradient id="SVGID_8_" gradientUnits="userSpaceOnUse" x1="45.2969" y1="35.9434" x2="194.8417" y2="35.9434" gradientTransform="matrix(1 0 0 -1 0 233.8898)">
						<stop  offset="0" style="stop-color:#594F94"/>
						<stop  offset="0.4748" style="stop-color:#594F94"/>
						<stop  offset="0.5557" style="stop-color:#594F94"/>
						<stop  offset="0.6516" style="stop-color:#5A5498"/>
						<stop  offset="0.7728" style="stop-color:#5E64A2"/>
						<stop  offset="0.9069" style="stop-color:#647EB4"/>
						<stop  offset="1" style="stop-color:#6994C3"/>
					</linearGradient>
					<path class="st2" d="M171.5,227c0,0-77.3,19.4-120.9-5.5c-0.2-0.1,0-1.8-1-2.7c-0.6-0.5-1.1-0.3-1.9-0.8c-1.2-0.7-1.8-2-2-3.1
						c-0.3-1.7,0.8-2.1,0.7-4.1c-0.1-2-1.3-2.3-1-3.6c0.2-1.2,1.4-1.7,4.1-3.5c2.2-1.5,1.5-1.3,4.1-3.1c0.2-0.1,3.7-2.6,7.3-4.6
						c6.2-3.4,12-5.2,19.1-7c5.8-1.5,10.6-2.7,18.5-4.1c14.3-2.4,32.1-3.7,47-4.8c1.1-0.1,5.4-0.4,10.8-1.5
						c6.7-1.4,4.4-1.8,11.3-3.4c2.9-0.7,5.9-1.2,6.9-3.5c0.1-0.3,0.4-0.9,0.3-1.5c-0.3-4.1-11-6.1-10.7-7.1c0.1-0.5,2.9,0,7.5-0.4
						c4.1-0.3,4.1-0.9,6.8-1c1.5-0.1,7.5-0.3,12.3,3.7c1.3,1.1,3.7,3.2,4.1,6.5c0.4,3.9-2.3,6.8-3.4,8c-3.4,3.7-7.7,4.8-9.7,5.3
						c-20.9,5.1-25.8,5.9-33,8.5c-6.7,2.5-3.1,2-14.3,7c-3.4,1.5-6.9,3-7,5.1c0,1.3,1.3,2.4,2.2,3.1c7.5,5.6,11.2,8.5,18.4,10.7
						c5.9,1.9,6.8,1.2,10,3.1c1.6,1,3.7,2.5,6.7,3.1c0.5,0.1,2,0.4,3.5,0.7C169.1,226.6,170.7,227.2,171.5,227z"/>
				</g>
				<g>
					<defs>
						<path id="SVGID_9_" d="M134.3,232.3H97.6C43.7,232.3,0,188.6,0,134.7V94.8C0,40.9,43.7-2.8,97.6-2.8h36.7
							c53.9,0,97.6,43.7,97.6,97.6v40C231.9,188.6,188.2,232.3,134.3,232.3z"/>
					</defs>
					<clipPath id="SVGID_10_">
						<use xlink:href="#SVGID_9_"  style="overflow:visible;"/>
					</clipPath>
					
						<radialGradient id="SVGID_11_" cx="118.79" cy="176.8398" r="57.12" gradientTransform="matrix(1 0 0 -1 0 233.8898)" gradientUnits="userSpaceOnUse">
						<stop  offset="0" style="stop-color:#697DDB"/>
						<stop  offset="0.4352" style="stop-color:#6C7FDC;stop-opacity:0.7669"/>
						<stop  offset="0.5922" style="stop-color:#6E81DC;stop-opacity:0.4764"/>
						<stop  offset="0.8041" style="stop-color:#7183DD;stop-opacity:0.2556"/>
						<stop  offset="1" style="stop-color:#7486DE;stop-opacity:5.000000e-02"/>
					</radialGradient>
					<circle class="st3" cx="118.8" cy="57" r="57.1"/>
				</g>
				<g>
					<defs>
						<path id="SVGID_12_" d="M134.3,232.3H97.6C43.7,232.3,0,188.6,0,134.7V94.8C0,40.9,43.7-2.8,97.6-2.8h36.7
							c53.9,0,97.6,43.7,97.6,97.6v40C231.9,188.6,188.2,232.3,134.3,232.3z"/>
					</defs>
					<clipPath id="SVGID_13_">
						<use xlink:href="#SVGID_12_"  style="overflow:visible;"/>
					</clipPath>
					
						<radialGradient id="SVGID_14_" cx="116.91" cy="175.1898" r="27.32" gradientTransform="matrix(1 0 0 -1 0 233.8898)" gradientUnits="userSpaceOnUse">
						<stop  offset="0.5192" style="stop-color:#687DDA"/>
						<stop  offset="0.6391" style="stop-color:#6375D3"/>
						<stop  offset="0.8226" style="stop-color:#5660C0"/>
						<stop  offset="1" style="stop-color:#4645A8"/>
					</radialGradient>
					<circle class="st4" cx="116.9" cy="58.7" r="27.3"/>
				</g>
				<g>
					<defs>
						<path id="SVGID_15_" d="M134.3,232.3H97.6C43.7,232.3,0,188.6,0,134.7V94.8C0,40.9,43.7-2.8,97.6-2.8h36.7
							c53.9,0,97.6,43.7,97.6,97.6v40C231.9,188.6,188.2,232.3,134.3,232.3z"/>
					</defs>
					<clipPath id="SVGID_16_">
						<use xlink:href="#SVGID_15_"  style="overflow:visible;"/>
					</clipPath>
					<path class="st5" d="M137.9,58.8c0,12-10.1,21.7-22.5,21.7c-8.4,0-15.7-4.4-19.5-10.9c3,1.4,6.3,2.2,9.8,2.2
						c12.4,0,22.5-9.7,22.5-21.7c0-3.9-1.1-7.6-2.9-10.7C132.7,42.8,137.9,50.2,137.9,58.8z"/>
				</g>
				<g>
					<defs>
						<path id="SVGID_17_" d="M134.3,232.3H97.6C43.7,232.3,0,188.6,0,134.7V94.8C0,40.9,43.7-2.8,97.6-2.8h36.7
							c53.9,0,97.6,43.7,97.6,97.6v40C231.9,188.6,188.2,232.3,134.3,232.3z"/>
					</defs>
					<clipPath id="SVGID_18_">
						<use xlink:href="#SVGID_17_"  style="overflow:visible;"/>
					</clipPath>
					
						<linearGradient id="SVGID_19_" gradientUnits="userSpaceOnUse" x1="216.6454" y1="95.8322" x2="119.0336" y2="10.6891" gradientTransform="matrix(1 0 0 -1 0 233.8898)">
						<stop  offset="0" style="stop-color:#524686"/>
						<stop  offset="0.3414" style="stop-color:#504483"/>
						<stop  offset="0.4482" style="stop-color:#4B3F7A"/>
						<stop  offset="0.5649" style="stop-color:#41376B"/>
						<stop  offset="0.9904" style="stop-color:#302850"/>
					</linearGradient>
					<path class="st6" d="M136.1,150.5C136.1,150.5,136.1,150.5,136.1,150.5c0.4,0.1,3.5-2.2,4-2.5c1.5-0.8,3-1.6,4.5-2.4
						c3-1.5,6.1-2.8,9.1-4c12.7-4.9,26.4-7.3,40-6.9c13.1,0.4,26,3.3,38,8.4c0.3,8-1.5,16.5-3.8,24.1c-3,10.1-7.6,19.7-13.9,28.1
						c-8.1,11-18.8,19.9-30.9,26.3c-4,2.1-8.1,4-12.4,5.6c-0.7,0.3-2.7-0.5-3.4-0.6c-2.9-0.6-5.8-1.2-8.7-1.9
						c-7.4-1.8-14.8-3.9-21.9-6.8c-4.9-2-16.8-7-13.7-14.1c1.8-4,6.3-5.8,10.2-7.5c5.8-2.7,11.9-4.2,18.1-5.7
						c6.1-1.5,12.2-2.7,18.4-3.8c0,0,33-6.5,18-19.1c-1.4-1.2-2.8-2-4.6-2.6c-2.5-0.9-5.1-1.4-7.8-1.7c-1.9-0.2-3.9-0.4-5.8-0.4
						c-2.2-0.1-4.6,0.3-6.6-0.7c-4.6-2.4-9.2-4.7-13.9-6.8C144.9,153.6,140.4,152.3,136.1,150.5z"/>
				</g>
				<g>
					<defs>
						<path id="SVGID_20_" d="M134.3,232.3H97.6C43.7,232.3,0,188.6,0,134.7V94.8C0,40.9,43.7-2.8,97.6-2.8h36.7
							c53.9,0,97.6,43.7,97.6,97.6v40C231.9,188.6,188.2,232.3,134.3,232.3z"/>
					</defs>
					<clipPath id="SVGID_21_">
						<use xlink:href="#SVGID_20_"  style="overflow:visible;"/>
					</clipPath>
					<path class="st7" d="M176.9,172.2c0.1,0.4-5.6,2.7-11.6,4.5c-6.1,1.8-11,2.5-12.5,2.7c-11.8,1.7-21.9,1.7-29.2,2.4
						c-13.2,1.3-26.5,3.1-39.3,6.4c-7.2,1.8-14.3,4.4-20.9,7.9c-6.3,3.2-12.4,7.4-15.3,14.1c-0.7-5.4,3-10.9,6.7-14.4
						c6.6-6.3,15.7-9.8,24.3-12.1c19.7-5.4,40.3-4.9,60.6-6.4c3.8-0.3,7.6-0.6,11.3-0.9c6.9-0.7,11.2-1.1,16.8-2.2
						C173.7,173,176.9,171.9,176.9,172.2z"/>
				</g>
				<g>
					<defs>
						<path id="SVGID_22_" d="M134.3,232.3H97.6C43.7,232.3,0,188.6,0,134.7V94.8C0,40.9,43.7-2.8,97.6-2.8h36.7
							c53.9,0,97.6,43.7,97.6,97.6v40C231.9,188.6,188.2,232.3,134.3,232.3z"/>
					</defs>
					<clipPath id="SVGID_23_">
						<use xlink:href="#SVGID_22_"  style="overflow:visible;"/>
					</clipPath>
					
						<linearGradient id="SVGID_24_" gradientUnits="userSpaceOnUse" x1="64.525" y1="148.3845" x2="95.3154" y2="50.167" gradientTransform="matrix(1 0 0 -1 0 233.8898)">
						<stop  offset="0.4064" style="stop-color:#504482"/>
						<stop  offset="0.7724" style="stop-color:#3D305C"/>
						<stop  offset="1" style="stop-color:#342649"/>
					</linearGradient>
					<path class="st8" d="M-0.1,142.9c-0.1-0.9,16.5-3.8,17.5-3.9c20.1-3.7,40.8-5.1,61.2-3.6c20.3,1.5,39.8,6.3,58.6,13.9
						c2.7,1.1,5.4,2.3,8.1,3.4c9,3.9,18.2,8.1,26.7,13c1.9,1.1,3.9,2.4,4.9,4.4c0.3,0.7,0.4,1.5,0,2.1c-0.2,0.3-0.6,0.6-0.9,0.8
						c-2.2,1.3-4.8,1.7-7.2,2.3c-2.8,0.7-5.6,1.2-8.5,1.6c-5.6,0.8-11.3,1.1-16.9,1.4c-10.3,0.6-20.5,0.8-30.8,1.3
						c-8.1,0.4-16.3,1.3-24.2,3.1c-6.3,1.4-12.6,3.4-18.6,5.8c-5.7,2.3-11.3,5.1-15.5,9.6c-6.4,6.9-6.4,15.8-2.3,23.9
						C52,221.9,4.3,206.2-0.1,142.9z"/>
				</g>
				<g>
					<defs>
						<path id="SVGID_25_" d="M134.3,232.3H97.6C43.7,232.3,0,188.6,0,134.7V94.8C0,40.9,43.7-2.8,97.6-2.8h36.7
							c53.9,0,97.6,43.7,97.6,97.6v40C231.9,188.6,188.2,232.3,134.3,232.3z"/>
					</defs>
					<clipPath id="SVGID_26_">
						<use xlink:href="#SVGID_25_"  style="overflow:visible;"/>
					</clipPath>
					
						<linearGradient id="SVGID_27_" gradientUnits="userSpaceOnUse" x1="190.2888" y1="100.143" x2="205.2675" y2="131.4621" gradientTransform="matrix(1 0 0 -1 0 233.8898)">
						<stop  offset="0.2598" style="stop-color:#504682"/>
						<stop  offset="0.6089" style="stop-color:#3F3568"/>
						<stop  offset="0.6178" style="stop-color:#3F3567"/>
						<stop  offset="0.7274" style="stop-color:#3F3567"/>
					</linearGradient>
					<path class="st9" d="M201.1,89c-0.3,0.1-0.6,0.3-0.9,0.6c-4.9,4.7-8.4,10.8-10.4,17.2c-2,6.5-3.4,14.7-1.4,21.3
						c1.7,5.5,6,5.1,10.8,5.2c2.8,0.1,4.9-0.2,6.4-2.7c1.2-1.9,1.7-4.4,2-6.6c0.7-5.2,0.1-10.4-0.3-15.6c-0.2-2.8-0.5-5.6-1-8.4
						c-0.5-3.2-1-8.3-3.6-10.6c-0.3-0.2-0.6-0.4-0.9-0.5C201.6,88.8,201.3,88.9,201.1,89z"/>
				</g>
				<g>
					<defs>
						<path id="SVGID_28_" d="M134.3,232.3H97.6C43.7,232.3,0,188.6,0,134.7V94.8C0,40.9,43.7-2.8,97.6-2.8h36.7
							c53.9,0,97.6,43.7,97.6,97.6v40C231.9,188.6,188.2,232.3,134.3,232.3z"/>
					</defs>
					<clipPath id="SVGID_29_">
						<use xlink:href="#SVGID_28_"  style="overflow:visible;"/>
					</clipPath>
					
						<linearGradient id="SVGID_30_" gradientUnits="userSpaceOnUse" x1="197.75" y1="91.4497" x2="197.75" y2="100.8965" gradientTransform="matrix(1 0 0 -1 0 233.8898)">
						<stop  offset="0" style="stop-color:#282142"/>
						<stop  offset="1.170000e-02" style="stop-color:#282143;stop-opacity:0.9999"/>
						<stop  offset="0.3416" style="stop-color:#292757;stop-opacity:0.9966"/>
						<stop  offset="0.6716" style="stop-color:#292B63;stop-opacity:0.9933"/>
						<stop  offset="1" style="stop-color:#292C67;stop-opacity:0.99"/>
					</linearGradient>
					<path class="st10" d="M195.4,143.6c0,0,2.6,1.9,4.6,0v-11.8h-4.6V143.6z"/>
				</g>
				<g>
					<defs>
						<path id="SVGID_31_" d="M134.3,232.3H97.6C43.7,232.3,0,188.6,0,134.7V94.8C0,40.9,43.7-2.8,97.6-2.8h36.7
							c53.9,0,97.6,43.7,97.6,97.6v40C231.9,188.6,188.2,232.3,134.3,232.3z"/>
					</defs>
					<clipPath id="SVGID_32_">
						<use xlink:href="#SVGID_31_"  style="overflow:visible;"/>
					</clipPath>
					
						<linearGradient id="SVGID_33_" gradientUnits="userSpaceOnUse" x1="167.8523" y1="104.954" x2="178.4054" y2="121.6349" gradientTransform="matrix(1 0 0 -1 0 233.8898)">
						<stop  offset="0.2598" style="stop-color:#504682"/>
						<stop  offset="0.6089" style="stop-color:#3F3568"/>
						<stop  offset="0.6178" style="stop-color:#3F3567"/>
						<stop  offset="0.7274" style="stop-color:#3F3567"/>
					</linearGradient>
					<path class="st11" d="M175.8,101.7c-0.2,0.1-0.4,0.2-0.5,0.3c-8.4,6.5-8.6,18.3-6.3,27.7c0.4,1.6,3.3,1.6,4.6,1.4
						c10.2-1.2,8-15.8,6.5-22.5c-0.4-1.7-1.3-7.2-3.7-7.2C176.2,101.6,176,101.7,175.8,101.7z"/>
				</g>
				<g>
					<defs>
						<path id="SVGID_34_" d="M134.3,232.3H97.6C43.7,232.3,0,188.6,0,134.7V94.8C0,40.9,43.7-2.8,97.6-2.8h36.7
							c53.9,0,97.6,43.7,97.6,97.6v40C231.9,188.6,188.2,232.3,134.3,232.3z"/>
					</defs>
					<clipPath id="SVGID_35_">
						<use xlink:href="#SVGID_34_"  style="overflow:visible;"/>
					</clipPath>
					<path class="st12" d="M171.4,137.1c0,0,2.6,1,3.8,0v-6.3h-3.8V137.1z"/>
				</g>
				<g>
					<defs>
						<path id="SVGID_36_" d="M134.3,232.3H97.6C43.7,232.3,0,188.6,0,134.7V94.8C0,40.9,43.7-2.8,97.6-2.8h36.7
							c53.9,0,97.6,43.7,97.6,97.6v40C231.9,188.6,188.2,232.3,134.3,232.3z"/>
					</defs>
					<clipPath id="SVGID_37_">
						<use xlink:href="#SVGID_36_"  style="overflow:visible;"/>
					</clipPath>
					
						<linearGradient id="SVGID_38_" gradientUnits="userSpaceOnUse" x1="41.3605" y1="96.3929" x2="59.7435" y2="185.9248" gradientTransform="matrix(1 0 0 -1 0 233.8898)">
						<stop  offset="0" style="stop-color:#4645A8"/>
						<stop  offset="0.1466" style="stop-color:#42409B"/>
						<stop  offset="0.2014" style="stop-color:#42409B"/>
						<stop  offset="0.3548" style="stop-color:#42409A"/>
						<stop  offset="0.6251" style="stop-color:#332F69"/>
						<stop  offset="0.7357" style="stop-color:#2E2959"/>
						<stop  offset="0.8748" style="stop-color:#2A254C"/>
						<stop  offset="1" style="stop-color:#292347"/>
					</linearGradient>
					<path class="st13" d="M47,140.1h7.6c0,0,15.5-6.8,20.6-28.3c5.1-21.4-6-23-6-23s4.6-39-17.7-49.5c0,0-12.9-1.4-11.6,16.3
						c0,0-18.5,1-13.3,34c0,0,4.1,10.1-0.2,9.4c0,0-8,12.6,7,29.8C33.5,128.8,39,137.2,47,140.1z"/>
				</g>
				<g>
					<defs>
						<path id="SVGID_39_" d="M134.3,232.3H97.6C43.7,232.3,0,188.6,0,134.7V94.8C0,40.9,43.7-2.8,97.6-2.8h36.7
							c53.9,0,97.6,43.7,97.6,97.6v40C231.9,188.6,188.2,232.3,134.3,232.3z"/>
					</defs>
					<clipPath id="SVGID_40_">
						<use xlink:href="#SVGID_39_"  style="overflow:visible;"/>
					</clipPath>
					
						<linearGradient id="SVGID_41_" gradientUnits="userSpaceOnUse" x1="48.4972" y1="76.7789" x2="48.8376" y2="150.3108" gradientTransform="matrix(1 0 0 -1 0 233.8898)">
						<stop  offset="0" style="stop-color:#282142"/>
						<stop  offset="0.3672" style="stop-color:#282551;stop-opacity:0.9963"/>
						<stop  offset="1" style="stop-color:#292C67;stop-opacity:0.99"/>
					</linearGradient>
					<path class="st14" d="M46.8,161.8c0,0,0.3,0.9,1,1.5c1.1,1.1,3.8,0.9,6.5-0.7c0.1-2.3,0.1-4.6,0.2-7c0-1.6,0-3.1,0-4.6
						c-0.2-10.4-0.7-18.6-1.2-24.2c-0.5-5.7-0.4-8.9,0.3-13.8c0.7-4.4,3.2-7.8,4.6-11.8c-0.1,0.3-2.6,1.6-3.1,2.1
						c-1.3,1.4-2.2,3.1-2.7,4.9c-0.7-8.1-1-16.3-0.7-24.4c0-1.2,0.1-2.4,0.9-3.3c-0.3,0.4-3.4,0-4,0.1c-0.4,3.1,0.5,7,0.5,10.2
						c0.1,10.9-0.6,21.8-1.3,32.6c0.1-0.9-2.3-3.5-2.8-4.2c-1.3-2.2-2.2-6.3-4.4-7.6c-0.5,1-0.8,2-1.2,3.1
						c5.6,6.3,7.5,15.1,7.8,23.6c0.2,7.2-0.6,14.4-0.6,21.6C46.6,160.6,46.7,161.3,46.8,161.8z"/>
				</g>
				<g>
					<defs>
						<path id="SVGID_42_" d="M134.3,232.3H97.6C43.7,232.3,0,188.6,0,134.7V94.8C0,40.9,43.7-2.8,97.6-2.8h36.7
							c53.9,0,97.6,43.7,97.6,97.6v40C231.9,188.6,188.2,232.3,134.3,232.3z"/>
					</defs>
					<clipPath id="SVGID_43_">
						<use xlink:href="#SVGID_42_"  style="overflow:visible;"/>
					</clipPath>
					
						<radialGradient id="SVGID_44_" cx="48.22" cy="212.5848" r="4.1329" gradientTransform="matrix(1 0 0 -1 0 233.8898)" gradientUnits="userSpaceOnUse">
						<stop  offset="0" style="stop-color:#BAE6FE"/>
						<stop  offset="0.2489" style="stop-color:#BAE4FC;stop-opacity:0.7"/>
						<stop  offset="0.4277" style="stop-color:#B9D6EE;stop-opacity:0.5502"/>
						<stop  offset="0.7473" style="stop-color:#B7C2DA;stop-opacity:0.2823"/>
						<stop  offset="0.9648" style="stop-color:#B6BBD3;stop-opacity:0.1"/>
						<stop  offset="1" style="stop-color:#B6BAD2;stop-opacity:0.2"/>
					</radialGradient>
					<polygon class="st15" points="50.5,25.4 48,23.8 45.3,25 46,22.2 44,20 47,19.8 48.4,17.2 49.5,19.9 52.4,20.6 50.2,22.5 					
						"/>
				</g>
				<g>
					<defs>
						<path id="SVGID_45_" d="M134.3,232.3H97.6C43.7,232.3,0,188.6,0,134.7V94.8C0,40.9,43.7-2.8,97.6-2.8h36.7
							c53.9,0,97.6,43.7,97.6,97.6v40C231.9,188.6,188.2,232.3,134.3,232.3z"/>
					</defs>
					<clipPath id="SVGID_46_">
						<use xlink:href="#SVGID_45_"  style="overflow:visible;"/>
					</clipPath>
					
						<radialGradient id="SVGID_47_" cx="22.325" cy="187.9948" r="4.68" gradientTransform="matrix(1 0 0 -1 0 233.8898)" gradientUnits="userSpaceOnUse">
						<stop  offset="0" style="stop-color:#BAE6FE"/>
						<stop  offset="0.2489" style="stop-color:#BAE4FC;stop-opacity:0.7"/>
						<stop  offset="0.4277" style="stop-color:#B9D6EE;stop-opacity:0.5502"/>
						<stop  offset="0.7473" style="stop-color:#B7C2DA;stop-opacity:0.2823"/>
						<stop  offset="0.9648" style="stop-color:#B6BBD3;stop-opacity:0.1"/>
						<stop  offset="1" style="stop-color:#B6BAD2;stop-opacity:0.2"/>
					</radialGradient>
					<polygon class="st16" points="24.4,50.6 21.7,48.6 18.6,49.7 19.6,46.5 17.6,43.9 21,43.9 22.9,41.2 23.9,44.4 27,45.3 
						24.3,47.3 					"/>
				</g>
				<g>
					<defs>
						<path id="SVGID_48_" d="M134.3,232.3H97.6C43.7,232.3,0,188.6,0,134.7V94.8C0,40.9,43.7-2.8,97.6-2.8h36.7
							c53.9,0,97.6,43.7,97.6,97.6v40C231.9,188.6,188.2,232.3,134.3,232.3z"/>
					</defs>
					<clipPath id="SVGID_49_">
						<use xlink:href="#SVGID_48_"  style="overflow:visible;"/>
					</clipPath>
					
						<radialGradient id="SVGID_50_" cx="17.32" cy="161.2998" r="4.1354" gradientTransform="matrix(1 0 0 -1 0 233.8898)" gradientUnits="userSpaceOnUse">
						<stop  offset="0" style="stop-color:#BAE6FE"/>
						<stop  offset="0.2489" style="stop-color:#BAE4FC;stop-opacity:0.7"/>
						<stop  offset="0.4277" style="stop-color:#B9D6EE;stop-opacity:0.5502"/>
						<stop  offset="0.7473" style="stop-color:#B7C2DA;stop-opacity:0.2823"/>
						<stop  offset="0.9648" style="stop-color:#B6BBD3;stop-opacity:0.1"/>
						<stop  offset="1" style="stop-color:#B6BAD2;stop-opacity:0.2"/>
					</radialGradient>
					<polygon class="st17" points="16,76.8 15.8,73.9 13.2,72.4 16,71.3 16.6,68.4 18.5,70.6 21.4,70.4 19.9,72.9 21,75.5 
						18.2,74.8 					"/>
				</g>
				<g>
					<defs>
						<path id="SVGID_51_" d="M134.3,232.3H97.6C43.7,232.3,0,188.6,0,134.7V94.8C0,40.9,43.7-2.8,97.6-2.8h36.7
							c53.9,0,97.6,43.7,97.6,97.6v40C231.9,188.6,188.2,232.3,134.3,232.3z"/>
					</defs>
					<clipPath id="SVGID_52_">
						<use xlink:href="#SVGID_51_"  style="overflow:visible;"/>
					</clipPath>
					
						<radialGradient id="SVGID_53_" cx="197.54" cy="173.8198" r="3.96" gradientTransform="matrix(1 0 0 -1 0 233.8898)" gradientUnits="userSpaceOnUse">
						<stop  offset="0" style="stop-color:#BAE6FE"/>
						<stop  offset="0.2489" style="stop-color:#BAE4FC;stop-opacity:0.7"/>
						<stop  offset="0.4277" style="stop-color:#B9D6EE;stop-opacity:0.5502"/>
						<stop  offset="0.7473" style="stop-color:#B7C2DA;stop-opacity:0.2823"/>
						<stop  offset="0.9648" style="stop-color:#B6BBD3;stop-opacity:0.1"/>
						<stop  offset="1" style="stop-color:#B6BAD2;stop-opacity:0.2"/>
					</radialGradient>
					<polygon class="st18" points="201.5,61.8 198.7,61.7 197.1,64 196.3,61.4 193.6,60.5 195.9,58.9 195.9,56.1 198.1,57.8 
						200.7,56.9 199.8,59.5 					"/>
				</g>
				<g>
					<defs>
						<path id="SVGID_54_" d="M134.3,232.3H97.6C43.7,232.3,0,188.6,0,134.7V94.8C0,40.9,43.7-2.8,97.6-2.8h36.7
							c53.9,0,97.6,43.7,97.6,97.6v40C231.9,188.6,188.2,232.3,134.3,232.3z"/>
					</defs>
					<clipPath id="SVGID_55_">
						<use xlink:href="#SVGID_54_"  style="overflow:visible;"/>
					</clipPath>
					
						<radialGradient id="SVGID_56_" cx="176.715" cy="208.4348" r="3.0353" gradientTransform="matrix(1 0 0 -1 0 233.8898)" gradientUnits="userSpaceOnUse">
						<stop  offset="0" style="stop-color:#BAE6FE"/>
						<stop  offset="0.2489" style="stop-color:#BAE4FC;stop-opacity:0.7"/>
						<stop  offset="0.4277" style="stop-color:#B9D6EE;stop-opacity:0.5502"/>
						<stop  offset="0.7473" style="stop-color:#B7C2DA;stop-opacity:0.2823"/>
						<stop  offset="0.9648" style="stop-color:#B6BBD3;stop-opacity:0.1"/>
						<stop  offset="1" style="stop-color:#B6BAD2;stop-opacity:0.2"/>
					</radialGradient>
					<polygon class="st19" points="179.7,27.1 177.6,26.9 176.2,28.5 175.7,26.4 173.7,25.6 175.6,24.5 175.7,22.4 177.3,23.8 
						179.4,23.3 178.6,25.2 					"/>
				</g>
				<g>
					<defs>
						<path id="SVGID_57_" d="M134.3,232.3H97.6C43.7,232.3,0,188.6,0,134.7V94.8C0,40.9,43.7-2.8,97.6-2.8h36.7
							c53.9,0,97.6,43.7,97.6,97.6v40C231.9,188.6,188.2,232.3,134.3,232.3z"/>
					</defs>
					<clipPath id="SVGID_58_">
						<use xlink:href="#SVGID_57_"  style="overflow:visible;"/>
					</clipPath>
					
						<radialGradient id="SVGID_59_" cx="151.085" cy="208.6898" r="2.0378" gradientTransform="matrix(1 0 0 -1 0 233.8898)" gradientUnits="userSpaceOnUse">
						<stop  offset="0" style="stop-color:#BAE6FE"/>
						<stop  offset="0.2489" style="stop-color:#BAE4FC;stop-opacity:0.7"/>
						<stop  offset="0.4277" style="stop-color:#B9D6EE;stop-opacity:0.5502"/>
						<stop  offset="0.7473" style="stop-color:#B7C2DA;stop-opacity:0.2823"/>
						<stop  offset="0.9648" style="stop-color:#B6BBD3;stop-opacity:0.1"/>
						<stop  offset="1" style="stop-color:#B6BAD2;stop-opacity:0.2"/>
					</radialGradient>
					<polygon class="st20" points="152.5,27.1 151.2,26.5 149.9,27.2 150.1,25.8 149,24.8 150.4,24.5 151,23.2 151.7,24.5 
						153.2,24.6 152.2,25.7 					"/>
				</g>
				<g>
					<defs>
						<path id="SVGID_60_" d="M134.3,232.3H97.6C43.7,232.3,0,188.6,0,134.7V94.8C0,40.9,43.7-2.8,97.6-2.8h36.7
							c53.9,0,97.6,43.7,97.6,97.6v40C231.9,188.6,188.2,232.3,134.3,232.3z"/>
					</defs>
					<clipPath id="SVGID_61_">
						<use xlink:href="#SVGID_60_"  style="overflow:visible;"/>
					</clipPath>
					
						<radialGradient id="SVGID_62_" cx="148.915" cy="125.3048" r="2.9001" gradientTransform="matrix(1 0 0 -1 0 233.8898)" gradientUnits="userSpaceOnUse">
						<stop  offset="0" style="stop-color:#BAE6FE"/>
						<stop  offset="0.2489" style="stop-color:#BAE4FC;stop-opacity:0.7"/>
						<stop  offset="0.4277" style="stop-color:#B9D6EE;stop-opacity:0.5502"/>
						<stop  offset="0.7473" style="stop-color:#B7C2DA;stop-opacity:0.2823"/>
						<stop  offset="0.9648" style="stop-color:#B6BBD3;stop-opacity:0.1"/>
						<stop  offset="1" style="stop-color:#B6BAD2;stop-opacity:0.2"/>
					</radialGradient>
					<polygon class="st21" points="151.1,111.1 149.2,110.3 147.5,111.5 147.6,109.4 146,108.1 148,107.6 148.7,105.7 149.8,107.4 
						151.8,107.5 150.5,109.1 					"/>
				</g>
				<g>
					<defs>
						<path id="SVGID_63_" d="M134.3,232.3H97.6C43.7,232.3,0,188.6,0,134.7V94.8C0,40.9,43.7-2.8,97.6-2.8h36.7
							c53.9,0,97.6,43.7,97.6,97.6v40C231.9,188.6,188.2,232.3,134.3,232.3z"/>
					</defs>
					<clipPath id="SVGID_64_">
						<use xlink:href="#SVGID_63_"  style="overflow:visible;"/>
					</clipPath>
					
						<radialGradient id="SVGID_65_" cx="88.015" cy="113.1948" r="5.3717" gradientTransform="matrix(1 0 0 -1 0 233.8898)" gradientUnits="userSpaceOnUse">
						<stop  offset="0" style="stop-color:#BAE6FE"/>
						<stop  offset="0.2489" style="stop-color:#BAE4FC;stop-opacity:0.7"/>
						<stop  offset="0.4277" style="stop-color:#B9D6EE;stop-opacity:0.5502"/>
						<stop  offset="0.7473" style="stop-color:#B7C2DA;stop-opacity:0.2823"/>
						<stop  offset="0.9648" style="stop-color:#B6BBD3;stop-opacity:0.1"/>
						<stop  offset="1" style="stop-color:#B6BAD2;stop-opacity:0.2"/>
					</radialGradient>
					<polygon class="st22" points="93.2,124.1 89.5,123.4 86.8,126.2 86.2,122.4 82.8,120.7 86.2,119 86.8,115.2 89.5,117.9 
						93.3,117.3 91.5,120.7 					"/>
				</g>
				<g>
					<defs>
						<path id="SVGID_66_" d="M134.3,232.3H97.6C43.7,232.3,0,188.6,0,134.7V94.8C0,40.9,43.7-2.8,97.6-2.8h36.7
							c53.9,0,97.6,43.7,97.6,97.6v40C231.9,188.6,188.2,232.3,134.3,232.3z"/>
					</defs>
					<clipPath id="SVGID_67_">
						<use xlink:href="#SVGID_66_"  style="overflow:visible;"/>
					</clipPath>
					
						<radialGradient id="SVGID_68_" cx="184.14" cy="149.9498" r="3.341" gradientTransform="matrix(1 0 0 -1 0 233.8898)" gradientUnits="userSpaceOnUse">
						<stop  offset="0" style="stop-color:#BAE6FE"/>
						<stop  offset="0.2489" style="stop-color:#BAE4FC;stop-opacity:0.7"/>
						<stop  offset="0.4277" style="stop-color:#B9D6EE;stop-opacity:0.5502"/>
						<stop  offset="0.7473" style="stop-color:#B7C2DA;stop-opacity:0.2823"/>
						<stop  offset="0.9648" style="stop-color:#B6BBD3;stop-opacity:0.1"/>
						<stop  offset="1" style="stop-color:#B6BAD2;stop-opacity:0.2"/>
					</radialGradient>
					<polygon class="st23" points="187.4,86 185.1,85.6 183.4,87.4 183,85 180.9,84 183,82.9 183.3,80.5 185,82.2 187.4,81.8 
						186.3,83.9 					"/>
				</g>
				<g>
					<defs>
						<path id="SVGID_69_" d="M134.3,232.3H97.6C43.7,232.3,0,188.6,0,134.7V94.8C0,40.9,43.7-2.8,97.6-2.8h36.7
							c53.9,0,97.6,43.7,97.6,97.6v40C231.9,188.6,188.2,232.3,134.3,232.3z"/>
					</defs>
					<clipPath id="SVGID_70_">
						<use xlink:href="#SVGID_69_"  style="overflow:visible;"/>
					</clipPath>
					
						<radialGradient id="SVGID_71_" cx="213.97" cy="144.0448" r="6.3179" gradientTransform="matrix(1 0 0 -1 0 233.8898)" gradientUnits="userSpaceOnUse">
						<stop  offset="0" style="stop-color:#BAE6FE"/>
						<stop  offset="0.2489" style="stop-color:#BAE4FC;stop-opacity:0.7"/>
						<stop  offset="0.4277" style="stop-color:#B9D6EE;stop-opacity:0.5502"/>
						<stop  offset="0.7473" style="stop-color:#B7C2DA;stop-opacity:0.2823"/>
						<stop  offset="0.9648" style="stop-color:#B6BBD3;stop-opacity:0.1"/>
						<stop  offset="1" style="stop-color:#B6BAD2;stop-opacity:0.2"/>
					</radialGradient>
					<polygon class="st24" points="220.2,93.1 215.8,92.8 212.9,96.2 211.9,91.9 207.7,90.3 211.5,87.9 211.8,83.5 215.2,86.4 
						219.5,85.2 217.8,89.4 					"/>
				</g>
				<g>
					<defs>
						<path id="SVGID_72_" d="M134.3,232.3H97.6C43.7,232.3,0,188.6,0,134.7V94.8C0,40.9,43.7-2.8,97.6-2.8h36.7
							c53.9,0,97.6,43.7,97.6,97.6v40C231.9,188.6,188.2,232.3,134.3,232.3z"/>
					</defs>
					<clipPath id="SVGID_73_">
						<use xlink:href="#SVGID_72_"  style="overflow:visible;"/>
					</clipPath>
					
						<radialGradient id="SVGID_74_" cx="137.63" cy="111.6498" r="3.0008" gradientTransform="matrix(1 0 0 -1 0 233.8898)" gradientUnits="userSpaceOnUse">
						<stop  offset="0" style="stop-color:#BAE6FE"/>
						<stop  offset="0.2489" style="stop-color:#BAE4FC;stop-opacity:0.7"/>
						<stop  offset="0.4277" style="stop-color:#B9D6EE;stop-opacity:0.5502"/>
						<stop  offset="0.7473" style="stop-color:#B7C2DA;stop-opacity:0.2823"/>
						<stop  offset="0.9648" style="stop-color:#B6BBD3;stop-opacity:0.1"/>
						<stop  offset="1" style="stop-color:#B6BAD2;stop-opacity:0.2"/>
					</radialGradient>
					<polygon class="st25" points="140.6,124.1 138.4,123.8 137,125.3 136.6,123.2 134.7,122.3 136.6,121.3 136.9,119.2 
						138.4,120.7 140.5,120.3 139.5,122.2 					"/>
				</g>
				<g>
					<defs>
						<path id="SVGID_75_" d="M134.3,232.3H97.6C43.7,232.3,0,188.6,0,134.7V94.8C0,40.9,43.7-2.8,97.6-2.8h36.7
							c53.9,0,97.6,43.7,97.6,97.6v40C231.9,188.6,188.2,232.3,134.3,232.3z"/>
					</defs>
					<clipPath id="SVGID_76_">
						<use xlink:href="#SVGID_75_"  style="overflow:visible;"/>
					</clipPath>
					
						<radialGradient id="SVGID_77_" cx="119.995" cy="108.0548" r="3.9807" gradientTransform="matrix(1 0 0 -1 0 233.8898)" gradientUnits="userSpaceOnUse">
						<stop  offset="0" style="stop-color:#BAE6FE"/>
						<stop  offset="0.2489" style="stop-color:#BAE4FC;stop-opacity:0.7"/>
						<stop  offset="0.4277" style="stop-color:#B9D6EE;stop-opacity:0.5502"/>
						<stop  offset="0.7473" style="stop-color:#B7C2DA;stop-opacity:0.2823"/>
						<stop  offset="0.9648" style="stop-color:#B6BBD3;stop-opacity:0.1"/>
						<stop  offset="1" style="stop-color:#B6BAD2;stop-opacity:0.2"/>
					</radialGradient>
					<polygon class="st26" points="122.7,129.6 120.1,128.3 117.7,129.7 118.1,126.9 115.9,125 118.7,124.5 119.9,121.9 
						121.2,124.4 124.1,124.7 122.1,126.8 					"/>
				</g>
				<g>
					<defs>
						<path id="SVGID_78_" d="M134.3,232.3H97.6C43.7,232.3,0,188.6,0,134.7V94.8C0,40.9,43.7-2.8,97.6-2.8h36.7
							c53.9,0,97.6,43.7,97.6,97.6v40C231.9,188.6,188.2,232.3,134.3,232.3z"/>
					</defs>
					<clipPath id="SVGID_79_">
						<use xlink:href="#SVGID_78_"  style="overflow:visible;"/>
					</clipPath>
					
						<radialGradient id="SVGID_80_" cx="14.765" cy="113.3898" r="3.6025" gradientTransform="matrix(1 0 0 -1 0 233.8898)" gradientUnits="userSpaceOnUse">
						<stop  offset="0" style="stop-color:#BAE6FE"/>
						<stop  offset="0.2489" style="stop-color:#BAE4FC;stop-opacity:0.7"/>
						<stop  offset="0.4277" style="stop-color:#B9D6EE;stop-opacity:0.5502"/>
						<stop  offset="0.7473" style="stop-color:#B7C2DA;stop-opacity:0.2823"/>
						<stop  offset="0.9648" style="stop-color:#B6BBD3;stop-opacity:0.1"/>
						<stop  offset="1" style="stop-color:#B6BAD2;stop-opacity:0.2"/>
					</radialGradient>
					<polygon class="st27" points="17.6,123.4 15.2,122.6 13.2,124.1 13.2,121.6 11.2,120.1 13.6,119.3 14.4,116.9 15.8,119 
						18.4,119 16.8,121 					"/>
				</g>
				<g>
					<defs>
						<path id="SVGID_81_" d="M134.3,232.3H97.6C43.7,232.3,0,188.6,0,134.7V94.8C0,40.9,43.7-2.8,97.6-2.8h36.7
							c53.9,0,97.6,43.7,97.6,97.6v40C231.9,188.6,188.2,232.3,134.3,232.3z"/>
					</defs>
					<clipPath id="SVGID_82_">
						<use xlink:href="#SVGID_81_"  style="overflow:visible;"/>
					</clipPath>
					
						<radialGradient id="SVGID_83_" cx="137.725" cy="97.7648" r="1.968" gradientTransform="matrix(1 0 0 -1 0 233.8898)" gradientUnits="userSpaceOnUse">
						<stop  offset="0" style="stop-color:#BAE6FE"/>
						<stop  offset="0.2489" style="stop-color:#BAE4FC;stop-opacity:0.7"/>
						<stop  offset="0.4277" style="stop-color:#B9D6EE;stop-opacity:0.5502"/>
						<stop  offset="0.7473" style="stop-color:#B7C2DA;stop-opacity:0.2823"/>
						<stop  offset="0.9648" style="stop-color:#B6BBD3;stop-opacity:0.1"/>
						<stop  offset="1" style="stop-color:#B6BAD2;stop-opacity:0.2"/>
					</radialGradient>
					<polygon class="st28" points="137.9,138.1 137.1,136.9 135.8,136.9 136.6,135.8 136.2,134.5 137.5,135 138.6,134.2 
						138.6,135.6 139.7,136.4 138.4,136.8 					"/>
				</g>
			</g>
		</g>
	</g>
</g>
</svg>
