<svg id="Capa_1" enable-background="new 0 0 512.019 512.019" height="512" viewBox="0 0 512.019 512.019" width="512" xmlns="http://www.w3.org/2000/svg"><g id="XMLID_2096_"><g id="XMLID_1934_"><path id="XMLID_1585_" d="m374.172 10.856-314.361 93.6c-10.586 3.152-16.613 14.289-13.461 24.876l102.137 343.034c3.152 10.586 14.289 16.613 24.876 13.461l314.361-93.6c10.586-3.152 16.613-14.289 13.461-24.876l-102.138-343.034c-3.152-10.586-14.289-16.613-24.875-13.461z" fill="#ffd89e"/></g><g id="XMLID_1805_"><path d="m358 104.092h-328c-11.046 0-20 8.954-20 20v357.917c0 11.046 8.954 20 20 20h328c11.046 0 20-8.954 20-20v-357.917c0-11.045-8.954-20-20-20z" fill="#fff"/></g><g id="XMLID_1845_"><path id="XMLID_153_" d="m62 156.092h264v239.91h-264z" fill="#9bc6ff"/></g><g id="XMLID_2363_"><g id="XMLID_2362_"><path id="XMLID_148_" d="m169.176 336.384h-32.363c-19.226 0-34.813 15.586-34.813 34.813v24.805h92 92v-24.805c0-19.226-15.586-34.813-34.813-34.813h-33.055z" fill="#ffcb7c"/></g><g id="XMLID_2339_"><path d="m215 310.764v24.122c0 11.598-9.402 21-21 21-11.598 0-21-9.402-21-21v-24.122z" fill="#f2bb88"/></g><g id="XMLID_2321_"><path d="m234 249.687v24.759c0 22.091-17.909 40-40 40-22.091 0-40-17.909-40-40v-24.759z" fill="#f2bb88"/></g><g id="XMLID_2094_"><path id="XMLID_143_" d="m208.989 196.092h-29.978c-13.813 0-25.011 11.198-25.011 25.011v28.583h80v-28.583c0-13.813-11.198-25.011-25.011-25.011z" fill="#91def5"/></g><g id="XMLID_1588_"><path id="XMLID_1591_" d="m510.769 364.497-102.138-343.033c-2.286-7.68-7.427-14.01-14.475-17.824-7.047-3.814-15.158-4.655-22.838-2.368l-311.742 92.82h-29.576c-16.542 0-30 13.458-30 30v357.917c0 16.542 13.458 30 30 30h328c16.542 0 30-13.458 30-30v-49.657l102.578-30.542c15.854-4.72 24.911-21.459 20.191-37.313zm-25.899 18.146-96.87 28.842v-90.439c0-5.523-4.478-10-10-10s-10 4.477-10 10v160.963c0 5.514-4.486 10-10 10h-328c-5.514 0-10-4.486-10-10v-357.917c0-5.514 4.486-10 10-10h328c5.514 0 10 4.486 10 10v106.955c0 5.523 4.478 10 10 10s10-4.477 10-10v-106.955c0-16.542-13.458-30-30-30h-228.34l247.365-73.652c2.562-.762 5.264-.481 7.612.79 2.35 1.271 4.063 3.381 4.825 5.941l102.138 343.034c1.574 5.285-1.446 10.864-6.73 12.438z"/><path id="XMLID_1594_" d="m326 146.092h-264c-5.522 0-10 4.477-10 10v239.91c0 5.523 4.478 10 10 10h264c5.522 0 10-4.477 10-10v-239.91c0-5.523-4.478-10-10-10zm-214 239.91v-14.805c0-13.682 11.131-24.813 24.813-24.813h28.408c4.577 11.415 15.748 19.501 28.78 19.501s24.203-8.086 28.78-19.501h28.408c13.682 0 24.813 11.131 24.813 24.813v14.805zm112-126.316v14.759c0 16.542-13.458 30-30 30s-30-13.458-30-30v-14.759zm0-20h-60v-18.583c0-8.277 6.734-15.011 15.012-15.011h29.978c8.277 0 15.011 6.734 15.011 15.011v18.583zm-30 84.759c3.78 0 7.458-.435 11-1.234v11.675c0 6.065-4.935 11-11 11s-11-4.935-11-11v-11.675c3.542.799 7.22 1.234 11 1.234zm122 61.557h-20v-14.805c0-24.709-20.103-44.813-44.813-44.813h-26.187v-12.752c11.562-9.166 19-23.32 19-39.187v-14.759h38.396c5.522 0 10-4.477 10-10s-4.478-10-10-10h-38.396v-18.583c0-19.305-15.706-35.011-35.011-35.011h-29.978c-19.306 0-35.012 15.706-35.012 35.011v53.342c0 15.867 7.438 30.02 19 39.187v12.752h-26.188c-24.71 0-44.813 20.103-44.813 44.813v14.805h-19.998v-219.91h244z"/><path id="XMLID_1616_" d="m378.001 266.044c-2.631 0-5.211 1.07-7.07 2.93-1.86 1.86-2.93 4.44-2.93 7.07 0 2.64 1.069 5.21 2.93 7.07 1.859 1.86 4.439 2.93 7.07 2.93 2.63 0 5.21-1.07 7.069-2.93 1.86-1.86 2.931-4.43 2.931-7.07 0-2.63-1.07-5.21-2.931-7.07-1.859-1.86-4.439-2.93-7.069-2.93z"/></g></g></g></svg>